<?xml version="1.0" standalone="no"?>
<!DOCTYPE svg PUBLIC "-//W3C//DTD SVG 20010904//EN"
 "http://www.w3.org/TR/2001/REC-SVG-20010904/DTD/svg10.dtd">
<svg version="1.0" xmlns="http://www.w3.org/2000/svg"
 width="900.000000pt" height="900.000000pt" viewBox="0 0 900.000000 900.000000"
 preserveAspectRatio="xMidYMid meet">

<g transform="translate(0.000000,900.000000) scale(0.100000,-0.100000)"
fill="#000000" stroke="none">
<path d="M3070 8989 c-485 -46 -927 -254 -1271 -598 -314 -314 -495 -664 -582
-1126 -21 -109 -21 -127 -24 -2695 -3 -1856 -1 -2616 7 -2695 39 -389 179
-748 407 -1053 73 -96 234 -264 334 -348 305 -254 697 -418 1114 -464 124 -14
2700 -13 2860 1 862 74 1601 697 1816 1532 61 236 61 240 66 1034 l4 733 -915
0 -916 0 0 -622 0 -623 -29 -60 c-35 -73 -78 -115 -151 -149 -54 -25 -59 -26
-287 -26 l-233 0 0 2670 0 2670 228 0 c276 0 299 -5 383 -89 93 -94 89 -59 89
-773 l0 -618 915 0 915 0 0 653 0 652 -1489 1003 -1489 1002 -834 -1 c-458 -1
-871 -5 -918 -10z m1650 -4489 l0 -2670 -742 2 -743 3 -42 23 c-68 36 -114 83
-145 147 l-28 60 0 2435 0 2435 29 60 c33 70 101 136 164 159 36 12 155 15
775 15 l732 1 0 -2670z"/>
</g>
</svg>
